<?xml version="1.0" encoding="UTF-8" ?>
<!DOCTYPE svg PUBLIC "-//W3C//DTD SVG 1.1//EN" "http://www.w3.org/Graphics/SVG/1.1/DTD/svg11.dtd">
<svg width="233pt" height="233pt" viewBox="0 0 233 233" version="1.1" xmlns="http://www.w3.org/2000/svg">
<g id="#29aae1ff">
<path fill="#29aae1" opacity="1.00" d=" M 89.54 49.10 C 89.85 43.23 95.04 37.89 101.02 37.93 C 129.85 37.92 158.68 37.83 187.51 37.99 C 187.78 49.17 178.12 59.28 166.95 59.60 C 150.50 59.66 134.04 59.65 117.58 59.61 C 117.56 65.62 117.58 71.63 117.53 77.64 C 108.18 77.62 98.78 77.89 89.46 77.50 C 89.61 68.04 89.41 58.56 89.54 49.10 Z" />
</g>
<g id="#1f76bbff">
<path fill="#1f76bb" opacity="1.00" d=" M 47.49 92.05 C 47.72 88.79 50.82 86.27 54.04 86.54 C 87.03 86.52 120.02 86.52 153.01 86.53 C 155.32 86.36 158.08 87.44 159.04 89.63 C 159.36 95.88 159.32 102.14 159.19 108.40 C 158.10 110.62 155.53 111.95 153.08 111.71 C 141.29 111.69 129.49 111.77 117.70 111.66 C 117.39 134.09 117.71 156.56 117.53 179.00 C 117.11 186.41 111.57 193.38 104.33 195.13 C 99.38 195.10 94.38 195.03 89.47 195.69 L 89.43 195.69 C 89.56 167.69 89.47 139.70 89.48 111.70 C 77.62 111.71 65.76 111.71 53.90 111.72 C 50.66 111.92 47.62 109.22 47.46 105.95 C 47.46 101.32 47.44 96.68 47.49 92.05 Z" />
</g>
<g id="#3a73a1ce">
<path fill="#3a73a1" opacity="0.81" d=" M 159.04 89.63 C 159.24 89.97 159.64 90.65 159.84 91.00 C 160.13 96.29 160.07 101.66 159.87 106.96 C 159.70 107.32 159.36 108.04 159.19 108.40 C 159.32 102.14 159.36 95.88 159.04 89.63 Z" />
</g>
<g id="#417299bf">
<path fill="#417299" opacity="0.75" d=" M 89.47 195.69 C 94.38 195.03 99.38 195.10 104.33 195.13 C 99.64 196.73 94.31 195.98 89.47 195.69 Z" />
</g>
</svg>
