<?xml version="1.0" encoding="UTF-8" ?>
<!DOCTYPE svg PUBLIC "-//W3C//DTD SVG 1.1//EN" "http://www.w3.org/Graphics/SVG/1.1/DTD/svg11.dtd">
<svg width="384pt" height="192pt" viewBox="0 0 384 192" version="1.1" xmlns="http://www.w3.org/2000/svg">
<g id="#0464fdff">
<path fill="#0464fd" opacity="1.00" d=" M 157.77 19.12 C 168.97 15.10 180.09 10.86 191.22 6.65 C 202.38 10.83 213.56 14.93 224.69 19.17 C 213.54 23.36 202.44 27.82 191.15 31.52 C 183.91 29.10 176.84 26.17 169.64 23.62 C 169.80 25.85 170.41 28.05 170.25 30.30 C 169.68 36.29 170.88 42.25 171.24 48.22 C 170.23 48.25 168.20 48.31 167.19 48.34 C 167.24 41.85 169.02 35.44 168.10 28.95 C 168.30 27.02 168.44 25.09 168.57 23.17 C 164.94 21.88 161.35 20.51 157.77 19.12 Z" />
<path fill="#0464fd" opacity="1.00" d=" M 174.30 27.03 C 179.93 29.18 185.61 31.18 191.24 33.35 C 196.97 31.26 202.69 29.18 208.39 27.01 C 208.27 29.95 208.84 33.02 207.99 35.88 C 206.01 40.36 201.00 42.24 196.56 43.28 C 189.66 44.42 181.71 43.66 176.45 38.59 C 173.19 35.64 174.53 30.89 174.30 27.03 Z" />
<path fill="#0464fd" opacity="1.00" d=" M 31.19 29.84 C 30.90 28.24 32.81 28.12 33.88 28.23 C 56.37 28.24 78.86 28.25 101.35 28.23 C 101.94 34.08 103.62 40.74 100.01 45.99 C 96.85 49.73 91.54 49.72 87.06 50.08 C 76.89 50.21 66.72 50.12 56.55 50.10 C 56.85 57.79 56.77 65.48 56.81 73.17 C 68.35 73.11 79.89 73.19 91.43 73.13 C 92.98 79.91 93.01 87.03 91.48 93.82 C 79.92 93.76 68.35 93.74 56.78 93.82 C 56.80 108.69 56.77 123.56 56.79 138.44 C 48.32 139.73 39.62 139.81 31.15 138.41 C 31.18 102.22 31.09 66.03 31.19 29.84 Z" />
<path fill="#0464fd" opacity="1.00" d=" M 117.51 56.50 C 126.59 57.03 135.13 62.74 138.27 71.42 C 140.65 66.68 143.59 61.86 148.44 59.32 C 154.78 55.67 162.55 56.59 169.34 58.34 C 168.61 66.34 166.93 74.39 162.97 81.46 C 158.76 80.43 154.24 79.33 149.96 80.71 C 146.26 81.89 143.69 84.98 141.41 87.95 C 141.47 96.21 141.38 104.48 141.46 112.74 C 133.20 121.23 124.70 129.49 116.40 137.94 C 116.40 121.31 116.38 104.69 116.40 88.06 C 116.60 81.30 115.45 73.89 110.17 69.12 C 111.78 64.48 114.17 60.12 117.51 56.50 Z" />
<path fill="#0464fd" opacity="1.00" d=" M 36.58 165.84 C 36.49 160.24 46.18 159.64 47.11 165.11 C 45.15 164.12 43.44 162.11 41.03 162.55 C 38.38 162.16 36.84 166.26 39.40 167.39 C 42.30 168.94 47.60 168.77 47.89 173.05 C 47.09 178.80 36.93 178.90 36.19 173.06 C 38.48 174.52 40.87 177.12 43.84 175.83 C 46.57 175.67 47.18 171.41 44.47 170.74 C 41.78 169.45 37.27 169.44 36.58 165.84 Z" />
<path fill="#0464fd" opacity="1.00" d=" M 153.09 161.02 C 156.10 162.51 157.49 165.76 159.37 168.36 C 161.48 165.91 162.64 162.25 165.97 161.17 C 164.41 164.12 162.12 166.59 160.45 169.47 C 160.02 172.01 160.28 174.61 160.23 177.17 L 158.68 177.19 C 158.37 174.06 159.65 170.33 157.33 167.73 C 155.80 165.58 154.02 163.53 153.09 161.02 Z" />
<path fill="#0464fd" opacity="1.00" d=" M 243.09 169.00 C 243.02 164.57 247.37 160.69 251.77 161.49 C 254.66 161.77 256.77 164.04 257.97 166.53 C 255.28 165.33 253.13 162.28 249.87 162.93 C 245.79 163.37 243.29 168.16 244.92 171.85 C 246.00 174.94 249.86 176.71 252.90 175.41 C 254.65 174.32 256.17 172.89 257.99 171.90 C 256.93 174.83 254.24 177.23 251.03 177.25 C 246.67 177.49 242.66 173.36 243.09 169.00 Z" />
<path fill="#0464fd" opacity="1.00" d=" M 93.31 163.44 C 94.98 163.02 95.51 163.59 94.88 165.16 C 93.22 165.58 92.69 165.01 93.31 163.44 Z" />
<path fill="#0464fd" opacity="1.00" d=" M 126.79 163.92 C 127.76 165.75 129.01 167.38 130.87 168.38 C 130.18 168.42 128.80 168.50 128.11 168.54 C 128.13 171.31 128.13 174.09 128.14 176.87 C 127.75 176.89 126.96 176.93 126.57 176.95 C 126.59 174.22 126.58 171.49 126.59 168.76 C 125.56 168.46 124.54 168.16 123.52 167.86 C 125.95 167.69 126.95 166.22 126.79 163.92 Z" />
<path fill="#0464fd" opacity="1.00" d=" M 59.65 168.44 C 63.11 164.19 69.51 169.15 67.67 173.72 C 66.65 177.59 61.83 178.09 59.13 175.63 C 59.22 177.97 59.24 180.32 59.25 182.67 L 57.71 182.77 C 57.69 177.38 57.62 171.99 57.79 166.61 C 58.26 167.07 59.18 167.98 59.65 168.44 M 61.06 168.86 C 58.48 170.21 58.75 174.56 61.51 175.54 C 63.85 176.73 66.64 174.47 66.49 171.98 C 66.64 169.32 63.30 167.26 61.06 168.86 Z" />
<path fill="#0464fd" opacity="1.00" d=" M 108.26 167.81 C 109.88 166.70 111.74 166.78 113.51 167.45 C 114.97 170.70 114.51 174.35 114.23 177.79 C 111.31 175.35 115.13 169.50 111.03 168.22 C 106.50 168.60 107.67 174.01 107.50 177.15 C 107.18 177.16 106.53 177.18 106.21 177.19 C 106.19 173.82 106.24 170.45 106.16 167.08 C 106.85 167.33 107.56 167.57 108.26 167.81 Z" />
<path fill="#0464fd" opacity="1.00" d=" M 305.46 167.54 C 309.04 165.13 313.14 168.75 313.56 172.44 C 310.29 172.57 307.02 172.53 303.76 172.69 C 304.36 173.34 305.57 174.65 306.18 175.30 C 308.47 176.77 310.70 174.42 312.88 173.80 C 311.65 176.25 308.78 178.24 306.07 176.76 C 302.09 175.37 301.73 169.46 305.46 167.54 M 304.02 171.29 C 306.70 171.41 309.38 171.38 312.06 171.24 C 310.87 170.10 309.91 168.06 307.94 168.33 C 305.99 167.96 305.14 170.21 304.02 171.29 Z" />
<path fill="#0464fd" opacity="1.00" d=" M 326.14 167.25 C 329.72 165.42 333.14 169.06 333.69 172.43 C 330.42 172.53 327.14 172.53 323.88 172.72 C 325.04 173.99 326.05 175.73 327.98 175.88 C 329.70 175.35 331.31 174.52 333.00 173.91 C 331.61 176.22 328.80 178.24 326.09 176.76 C 321.93 175.30 321.96 168.66 326.14 167.25 M 324.12 171.27 C 326.81 171.39 329.51 171.39 332.22 171.29 C 331.02 170.07 329.93 168.17 327.96 168.31 C 326.06 168.16 325.14 170.04 324.12 171.27 Z" />
<path fill="#0464fd" opacity="1.00" d=" M 79.63 177.78 C 77.40 174.61 78.95 170.32 78.69 166.69 C 79.15 167.04 80.09 167.75 80.55 168.11 C 81.67 166.36 83.00 167.05 84.26 168.11 C 83.38 168.30 81.61 168.68 80.73 168.87 C 79.84 171.76 79.88 174.80 79.63 177.78 Z" />
<path fill="#0464fd" opacity="1.00" d=" M 93.47 167.63 C 93.74 167.38 94.28 166.89 94.54 166.65 C 94.78 170.16 94.69 173.69 94.64 177.21 C 94.31 177.20 93.66 177.18 93.33 177.17 C 93.37 173.99 93.04 170.78 93.47 167.63 Z" />
<path fill="#0464fd" opacity="1.00" d=" M 177.44 167.68 C 180.57 165.19 185.60 168.15 185.43 171.98 C 185.69 175.89 180.58 178.79 177.42 176.32 C 174.30 174.52 174.34 169.48 177.44 167.68 M 178.17 168.91 C 174.34 171.17 177.96 177.70 181.93 175.36 C 186.57 173.30 182.39 165.83 178.17 168.91 Z" />
<path fill="#0464fd" opacity="1.00" d=" M 195.86 167.24 C 196.23 167.23 196.96 167.21 197.32 167.20 C 197.43 169.87 196.95 172.65 197.84 175.22 C 199.54 176.87 202.86 175.25 202.70 172.91 C 202.90 171.02 202.84 169.12 202.86 167.22 C 203.25 167.22 204.01 167.23 204.39 167.23 C 204.41 170.74 204.46 174.26 204.21 177.76 C 203.76 177.28 202.87 176.32 202.42 175.83 C 200.89 177.57 197.75 177.90 196.53 175.63 C 195.38 173.00 196.01 170.02 195.86 167.24 Z" />
<path fill="#0464fd" opacity="1.00" d=" M 215.20 167.35 C 217.24 168.03 219.50 166.24 221.07 168.23 C 220.22 168.36 218.52 168.63 217.67 168.77 C 216.52 171.43 216.55 174.33 216.61 177.17 C 216.27 177.17 215.59 177.18 215.24 177.19 C 215.22 173.90 215.29 170.62 215.20 167.35 Z" />
<path fill="#0464fd" opacity="1.00" d=" M 270.20 176.78 C 266.17 174.92 266.69 168.13 271.03 167.01 C 272.64 166.09 274.22 167.71 275.68 168.24 C 276.12 167.84 276.98 167.04 277.42 166.64 C 277.61 170.36 277.66 174.08 277.32 177.79 C 276.95 177.32 276.21 176.38 275.84 175.91 C 274.12 176.75 272.06 177.94 270.20 176.78 M 271.49 168.46 C 268.14 169.28 268.00 174.64 271.29 175.63 C 273.93 176.71 275.75 174.07 276.54 171.94 C 275.59 170.04 273.98 167.66 271.49 168.46 Z" />
<path fill="#0464fd" opacity="1.00" d=" M 289.52 177.83 C 287.77 174.42 288.96 170.38 288.77 166.70 C 289.20 167.05 290.06 167.76 290.49 168.12 C 291.12 167.72 292.37 166.92 292.99 166.52 C 293.26 166.93 293.80 167.74 294.07 168.14 C 288.86 168.38 290.30 174.35 289.52 177.83 Z" />
<path fill="#0464fd" opacity="1.00" d=" M 344.55 177.81 C 342.71 174.42 343.96 170.34 343.78 166.65 C 344.15 166.99 344.89 167.67 345.27 168.01 C 346.63 167.16 348.18 166.49 349.35 168.02 C 348.06 168.71 345.79 168.56 345.41 170.35 C 344.86 172.80 344.93 175.33 344.55 177.81 Z" />
<path fill="#0464fd" opacity="1.00" d=" M 358.47 175.22 C 359.49 173.65 361.85 175.52 360.72 176.93 C 359.69 178.47 357.30 176.62 358.47 175.22 Z" />
</g>
<g id="#73c3faff">
<path fill="#73c3fa" opacity="1.00" d=" M 324.00 35.94 C 329.55 32.51 336.37 34.12 342.52 33.65 C 343.14 34.66 343.78 35.71 343.64 36.96 C 343.66 44.05 343.62 51.15 343.63 58.25 C 350.07 58.27 356.50 58.13 362.94 58.21 C 363.70 63.93 364.06 69.80 362.67 75.46 C 356.33 75.21 349.99 75.15 343.66 74.83 C 343.63 87.90 343.59 100.97 343.64 114.04 C 343.45 117.09 345.94 119.97 348.96 120.32 C 352.53 120.61 356.11 120.39 359.69 120.43 C 361.77 125.85 362.21 131.75 361.30 137.46 C 352.84 138.37 344.31 139.42 335.79 138.70 C 330.21 138.19 324.62 135.12 322.11 129.95 C 319.26 124.76 319.37 118.70 319.21 112.95 C 319.19 100.45 319.21 87.94 319.22 75.44 C 315.05 75.38 310.88 75.38 306.72 75.41 C 305.35 69.77 305.32 63.84 306.65 58.19 C 310.84 58.18 315.04 58.24 319.24 58.25 C 319.66 50.83 317.47 41.34 324.00 35.94 Z" />
<path fill="#73c3fa" opacity="1.00" d=" M 227.65 61.01 C 227.79 59.60 227.11 57.60 228.88 56.97 C 234.45 56.93 240.75 55.93 245.62 59.30 C 248.34 61.00 249.71 63.99 251.13 66.72 C 256.53 62.74 262.09 58.52 268.84 57.22 C 275.91 55.78 284.02 57.33 289.10 62.74 C 294.43 68.38 296.49 76.39 296.49 83.99 C 296.50 95.33 296.50 106.66 296.49 118.00 C 296.53 123.59 297.33 129.31 300.05 134.28 C 294.35 139.26 285.92 140.78 278.80 138.34 C 273.79 136.61 272.03 130.83 271.86 126.03 C 271.67 113.39 271.94 100.74 271.74 88.10 C 271.63 84.68 271.11 80.06 267.15 79.06 C 261.81 77.87 255.98 80.46 252.39 84.33 C 252.13 102.30 252.36 120.29 252.28 138.26 C 244.13 139.59 235.85 139.62 227.70 138.24 C 227.62 112.50 227.72 86.76 227.65 61.01 Z" />
<path fill="#73c3fa" opacity="1.00" d=" M 172.92 75.28 C 171.97 69.80 172.08 64.18 172.86 58.68 C 180.24 58.59 187.62 58.64 194.99 58.62 C 199.54 58.51 203.33 62.04 205.40 65.82 C 208.62 71.32 207.79 77.92 207.91 84.01 C 208.33 93.66 207.71 103.31 207.90 112.97 C 207.67 121.44 208.60 129.93 207.75 138.38 C 199.62 139.34 191.29 139.90 183.24 138.07 C 182.98 120.03 183.24 101.97 183.12 83.93 C 182.97 81.33 182.40 78.45 180.23 76.76 C 178.25 74.91 175.38 75.52 172.92 75.28 Z" />
</g>
</svg>
